<svg xmlns="http://www.w3.org/2000/svg" viewBox="0 0 64 64">
  <rect width="64" height="64" rx="16" fill="#0B0B0C"/>
  <circle cx="32" cy="32" r="24" fill="none" stroke="rgba(249,115,22,0.35)" stroke-width="2.5"/>
  <path d="M17,21 C16.5,18 18.5,15 21.5,15 L42.5,14.5 C45.5,14.5 47.5,17.5 47,21 L46,28.5 C45.5,31 43.5,32.5 40.5,33 L23.5,33.5 C20.5,33.5 18,31.5 17.5,28.5 Z" fill="#F97316" stroke="#FB923C" stroke-width="1.6" stroke-linecap="round" stroke-linejoin="round"/>
  <path d="M17,21 C16.5,18 18.5,15 21.5,15 L32,14.75 L32,33.25 L23.5,33.5 C20.5,33.5 18,31.5 17.5,28.5 Z" fill="#EA580C"/>
  <path d="M32,14.75 L42.5,14.5 C45.5,14.5 47.5,17.5 47,21 L46,28.5 C45.5,31 43.5,32.5 40.5,33 L32,33.25 Z" fill="#FB923C"/>
  <ellipse cx="25" cy="24" rx="4.4" ry="3.8" fill="rgba(11,11,12,0.3)" stroke="rgba(255,255,255,0.08)" stroke-width="1"/>
  <ellipse cx="39" cy="23.5" rx="4.8" ry="3.8" fill="rgba(11,11,12,0.3)" stroke="rgba(255,255,255,0.08)" stroke-width="1"/>
  <ellipse cx="25.4" cy="23.7" rx="2.4" ry="2.1" fill="#FFFFFF"/>
  <ellipse cx="39.4" cy="23.2" rx="2.6" ry="2.1" fill="#FFFFFF"/>
  <circle cx="20.5" cy="17.5" r="1.1" fill="#FB923C"/>
  <circle cx="43.5" cy="17.2" r="1.1" fill="#FB923C"/>
  <line x1="32" y1="14.5" x2="32" y2="9" stroke="#FB923C" stroke-width="1.8" stroke-linecap="round"/>
  <path d="M30,9 C30,7 31,6 32,6 C33,6 34,7 34,9" fill="none" stroke="#FB923C" stroke-width="1.8" stroke-linecap="round"/>
  <circle cx="32" cy="6.5" r="1.8" fill="#FB923C"/>
  <path d="M28,33.5 L27.2,37.5 C27.2,38.8 28.5,39.8 30,39.8 L34,39.8 C35.5,39.8 36.8,38.8 36.8,37.5 L36,33.5" fill="#F97316" stroke="#FB923C" stroke-width="1.6" stroke-linecap="round" stroke-linejoin="round"/>
  <path d="M23.5,39.8 C21.5,39.8 20,41 20,42.8 L18.5,52 C18.5,54.5 20.5,56.5 23.5,56.5 L40.5,56.5 C43.5,56.5 45.5,54.5 45.5,52 L44,42.8 C44,41 42.5,39.8 40.5,39.8 Z" fill="#F97316" stroke="#FB923C" stroke-width="1.6" stroke-linecap="round" stroke-linejoin="round"/>
  <path d="M23.5,39.8 C21.5,39.8 20,41 20,42.8 L18.5,52 C18.5,54.5 20.5,56.5 23.5,56.5 L32,56.5 L32,39.8 Z" fill="#EA580C"/>
  <rect x="27" y="43" width="10" height="6.5" rx="1.6" fill="none" stroke="#FB923C" stroke-width="1.5"/>
  <line x1="30.2" y1="43" x2="30.2" y2="49.5" stroke="#FB923C" stroke-width="1.2"/>
  <line x1="33.8" y1="43" x2="33.8" y2="49.5" stroke="#FB923C" stroke-width="1.2"/>
  <line x1="27" y1="46.2" x2="37" y2="46.2" stroke="#FB923C" stroke-width="1.2"/>
</svg>
